<svg width="16" height="16" viewBox="0 0 16 16" fill="none" xmlns="http://www.w3.org/2000/svg">
<rect width="16" height="16" rx="8" fill="#F5F5F5"/>
<path fill-rule="evenodd" clip-rule="evenodd" d="M3.42524 6.54697C6.07684 6.15634 6.5495 6.64619 8.01124 6.67588C9.47298 6.64619 9.94564 6.07821 12.5972 6.54697C12.7629 6.57666 12.7793 6.58369 12.8074 6.74775C12.8191 6.82041 12.8269 7.12745 12.8293 7.2001C12.8347 7.33448 12.8082 7.35245 12.6746 7.42354C12.5582 7.48526 12.5043 7.50323 12.5043 7.74855C12.5043 9.36576 11.7699 9.86577 10.7832 9.90405C9.74017 9.94467 8.89172 9.3517 8.53859 8.44153C8.03859 7.15557 7.96046 7.15479 7.46045 8.44153C7.1081 9.3517 6.28153 9.94545 5.23933 9.90483C4.25259 9.86577 3.51821 9.30795 3.51821 7.74933C3.51821 7.50401 3.4643 7.48604 3.34789 7.42432C3.2143 7.35245 3.18695 7.33448 3.1932 7.2001C3.19633 7.12745 3.20414 6.82041 3.21508 6.74775C3.2432 6.58369 3.25961 6.654 3.42524 6.54697V6.54697Z" fill="#202F41" stroke="#202F41" stroke-width="0.131652" stroke-miterlimit="10"/>
<path fill-rule="evenodd" clip-rule="evenodd" d="M12.0037 7.66708C12.017 7.05847 11.931 6.91706 11.5451 6.83816C11.1834 6.76394 10.813 6.728 10.4474 6.74206C10.0076 6.75925 9.50755 6.93035 9.16927 7.08113C8.73801 7.2741 8.67629 7.31082 8.77004 7.58348C9.03489 8.3538 9.36536 9.39913 10.7044 9.34991C11.6951 9.31241 11.9834 8.60459 12.0037 7.66708M3.92232 7.66708C3.94341 8.60459 4.23092 9.31319 5.22156 9.34913C6.56142 9.39913 6.89111 8.35302 7.15596 7.5827C7.24971 7.31004 7.18799 7.27332 6.75673 7.08035C6.41923 6.92956 5.91922 6.75847 5.47859 6.74128C5.11296 6.72722 4.74264 6.76316 4.38092 6.83738C3.99419 6.91706 3.90826 7.05847 3.92232 7.66708V7.66708Z" fill="white"/>
<path fill-rule="evenodd" clip-rule="evenodd" d="M3.42524 6.54697C6.07684 6.15634 6.5495 6.64619 8.01124 6.67588C9.47298 6.64619 9.94564 6.07821 12.5972 6.54697C12.7629 6.57666 12.7793 6.58369 12.8074 6.74775C12.8191 6.82041 12.8269 7.12745 12.8293 7.2001C12.8347 7.33448 12.8082 7.35245 12.6746 7.42354C12.5582 7.48526 12.5043 7.50323 12.5043 7.74855C12.5043 9.36576 11.7699 9.86577 10.7832 9.90405C9.74017 9.94467 8.89172 9.3517 8.53859 8.44153C8.03859 7.15557 7.96046 7.15479 7.46045 8.44153C7.1081 9.3517 6.28153 9.94545 5.23933 9.90483C4.25259 9.86577 3.51821 9.30795 3.51821 7.74933C3.51821 7.50401 3.4643 7.48604 3.34789 7.42432C3.2143 7.35245 3.18695 7.33448 3.1932 7.2001C3.19633 7.12745 3.20414 6.82041 3.21508 6.74775C3.2432 6.58369 3.25961 6.654 3.42524 6.54697V6.54697ZM12.0691 7.71808C12.0824 7.10948 11.9965 6.96807 11.6105 6.88916C11.2488 6.81494 10.8785 6.779 10.5128 6.79307C10.073 6.81025 9.56986 6.90557 9.23235 7.05635C8.8011 7.24932 8.75344 7.40011 8.84719 7.67198C9.11204 8.44231 9.43001 9.45013 10.7699 9.40013C11.7605 9.36341 12.0488 8.65559 12.0691 7.71808V7.71808ZM3.95337 7.71808C3.97446 8.65559 4.26197 9.3642 5.25261 9.40013C6.59247 9.44935 6.92216 8.40403 7.18701 7.6337C7.28076 7.36104 7.21904 7.32432 6.78779 7.13135C6.45028 6.98057 5.95027 6.80947 5.50964 6.79228C5.14401 6.77822 4.7737 6.81416 4.41197 6.88838C4.02603 6.96807 3.94009 7.10948 3.95337 7.71808V7.71808Z" fill="#202F41"/>
<path d="M7.23187 8.40784C6.87249 9.05941 5.96154 9.63989 5.34512 9.63989C4.72871 9.63989 3.87401 9.27035 4.07479 8.28675C4.28651 7.24767 4.72871 6.73829 5.34512 6.73829C5.96154 6.73751 8.10454 6.82344 7.23187 8.40784V8.40784ZM12.2444 8.40784C11.9538 9.09301 10.9749 9.63989 10.3577 9.63989C9.7405 9.63989 9.21627 9.07738 9.23346 8.2094C9.25299 7.24689 9.83112 6.72735 10.4475 6.74141C11.6718 6.76876 12.9296 6.79063 12.2444 8.40784Z" fill="#202F41"/>
</svg>
