<svg width="180" height="180" viewBox="0 0 180 180" fill="none" xmlns="http://www.w3.org/2000/svg">
<rect width="180" height="180" rx="90" fill="#F5F5F5"/>
<path fill-rule="evenodd" clip-rule="evenodd" d="M50.442 77.372C73.3685 73.9945 77.4553 78.2299 90.0939 78.4866C102.733 78.2299 106.819 73.319 129.746 77.372C131.178 77.6287 131.32 77.6895 131.563 79.1081C131.664 79.7363 131.732 82.391 131.752 83.0192C131.799 84.1811 131.57 84.3364 130.415 84.9512C129.408 85.4848 128.942 85.6402 128.942 87.7612C128.942 101.744 122.592 106.067 114.061 106.398C105.043 106.75 97.7068 101.622 94.6535 93.7529C90.3303 82.6342 89.6548 82.6274 85.3316 93.7529C82.2851 101.622 75.1383 106.756 66.1272 106.405C57.5956 106.067 51.2459 101.244 51.2459 87.768C51.2459 85.6469 50.7798 85.4916 49.7733 84.9579C48.6182 84.3364 48.3818 84.1811 48.4358 83.0192C48.4628 82.391 48.5304 79.7363 48.6249 79.1081C48.8681 77.6895 49.01 78.2975 50.442 77.372V77.372Z" fill="#202F41" stroke="#202F41" stroke-width="1.1383" stroke-miterlimit="10"/>
<path fill-rule="evenodd" clip-rule="evenodd" d="M124.606 87.0658C124.721 81.8036 123.978 80.581 120.641 79.8987C117.513 79.257 114.311 78.9463 111.15 79.0678C107.347 79.2165 103.023 80.6958 100.099 81.9995C96.3698 83.668 95.8362 83.9855 96.6468 86.343C98.9367 93.0034 101.794 102.042 113.372 101.616C121.937 101.292 124.43 95.1718 124.606 87.0658M54.732 87.0658C54.9144 95.1718 57.4002 101.299 65.9656 101.609C77.5504 102.042 80.401 92.9967 82.6909 86.3362C83.5015 83.9787 82.9679 83.6612 79.2391 81.9928C76.321 80.689 71.9978 79.2097 68.188 79.0611C65.0266 78.9395 61.8248 79.2502 58.6972 79.892C55.3535 80.581 54.6104 81.8036 54.732 87.0658V87.0658Z" fill="white"/>
<path fill-rule="evenodd" clip-rule="evenodd" d="M50.442 77.372C73.3685 73.9945 77.4553 78.2299 90.0939 78.4866C102.733 78.2299 106.819 73.319 129.746 77.372C131.178 77.6287 131.32 77.6895 131.563 79.1081C131.664 79.7363 131.732 82.391 131.752 83.0192C131.799 84.1811 131.57 84.3364 130.415 84.9512C129.408 85.4848 128.942 85.6402 128.942 87.7612C128.942 101.744 122.592 106.067 114.061 106.398C105.043 106.75 97.7068 101.622 94.6535 93.7529C90.3303 82.6342 89.6548 82.6274 85.3316 93.7529C82.2851 101.622 75.1383 106.756 66.1272 106.405C57.5956 106.067 51.2459 101.244 51.2459 87.768C51.2459 85.6469 50.7798 85.4916 49.7733 84.9579C48.6182 84.3364 48.3818 84.1811 48.4358 83.0192C48.4628 82.391 48.5304 79.7363 48.6249 79.1081C48.8681 77.6895 49.01 78.2975 50.442 77.372V77.372ZM125.179 87.4978C125.294 82.2356 124.551 81.013 121.214 80.3307C118.087 79.689 114.885 79.3783 111.723 79.4999C107.92 79.6485 103.57 80.4726 100.652 81.7763C96.9232 83.4448 96.5112 84.7485 97.3218 87.0992C99.6117 93.7597 102.361 102.474 113.946 102.041C122.511 101.724 125.004 95.6038 125.179 87.4978V87.4978ZM55.0084 87.4978C55.1908 95.6038 57.6767 101.731 66.242 102.041C77.8268 102.467 80.6774 93.4287 82.9674 86.7682C83.778 84.4108 83.2443 84.0933 79.5156 82.4248C76.5974 81.1211 72.2742 79.6417 68.4644 79.4931C65.303 79.3715 62.1012 79.6823 58.9736 80.324C55.6366 81.013 54.8936 82.2356 55.0084 87.4978V87.4978Z" fill="#202F41"/>
<path d="M83.3462 93.4765C80.2389 99.1102 72.3626 104.129 67.0329 104.129C61.7032 104.129 54.3132 100.934 56.0493 92.4295C57.8799 83.4453 61.7032 79.0411 67.0329 79.0411C72.3626 79.0343 90.8916 79.7774 83.3462 93.4765V93.4765ZM126.686 93.4765C124.173 99.4006 115.709 104.129 110.373 104.129C105.037 104.129 100.504 99.2655 100.653 91.7607C100.821 83.4386 105.82 78.9465 111.15 79.0681C121.735 79.3045 132.61 79.4936 126.686 93.4765Z" fill="#202F41"/>
</svg>
