<svg width="192" height="192" viewBox="0 0 192 192" fill="none" xmlns="http://www.w3.org/2000/svg">
<rect width="192" height="192" rx="96" fill="#F5F5F5"/>
<path fill-rule="evenodd" clip-rule="evenodd" d="M53.8048 82.5302C78.2597 78.9276 82.6189 83.4453 96.1001 83.7191C109.581 83.4453 113.941 78.207 138.395 82.5302C139.923 82.804 140.074 82.8689 140.334 84.382C140.442 85.0521 140.514 87.8838 140.535 88.5539C140.586 89.7932 140.341 89.9589 139.109 90.6146C138.035 91.1839 137.538 91.3496 137.538 93.612C137.538 108.527 130.765 113.139 121.665 113.492C112.046 113.866 104.221 108.397 100.964 100.003C96.3523 88.1432 95.6317 88.136 91.0203 100.003C87.7707 108.397 80.1475 113.873 70.5356 113.499C61.4352 113.139 54.6622 107.994 54.6622 93.6193C54.6622 91.3568 54.165 91.1911 53.0915 90.6218C51.8593 89.9589 51.6072 89.7932 51.6648 88.5539C51.6936 87.8838 51.7657 85.0521 51.8665 84.382C52.1259 82.8689 52.2773 83.5174 53.8048 82.5302V82.5302Z" fill="#202F41" stroke="#202F41" stroke-width="1.21419" stroke-miterlimit="10"/>
<path fill-rule="evenodd" clip-rule="evenodd" d="M132.911 92.8697C133.034 87.2567 132.241 85.9526 128.682 85.2248C125.346 84.5403 121.93 84.2089 118.558 84.3386C114.502 84.4971 109.89 86.0751 106.77 87.4657C102.793 89.2454 102.224 89.5841 103.088 92.0987C105.531 99.2032 108.579 108.844 120.929 108.39C130.065 108.044 132.724 101.516 132.911 92.8697M58.3793 92.8697C58.5738 101.516 61.2254 108.051 70.3618 108.383C82.7189 108.844 85.7596 99.196 88.2022 92.0915C89.0668 89.5769 88.4976 89.2382 84.5203 87.4585C81.4075 86.0679 76.7961 84.4899 72.7323 84.3314C69.3602 84.2017 65.9449 84.5331 62.6088 85.2176C59.0422 85.9526 58.2496 87.2567 58.3793 92.8697V92.8697Z" fill="white"/>
<path fill-rule="evenodd" clip-rule="evenodd" d="M53.8048 82.5302C78.2597 78.9276 82.6189 83.4453 96.1001 83.7191C109.581 83.4453 113.941 78.207 138.395 82.5302C139.923 82.804 140.074 82.8689 140.334 84.382C140.442 85.0521 140.514 87.8838 140.535 88.5539C140.586 89.7932 140.341 89.9589 139.109 90.6146C138.035 91.1839 137.538 91.3496 137.538 93.612C137.538 108.527 130.765 113.139 121.665 113.492C112.046 113.866 104.221 108.397 100.964 100.003C96.3523 88.1432 95.6317 88.136 91.0203 100.003C87.7707 108.397 80.1475 113.873 70.5356 113.499C61.4352 113.139 54.6622 107.994 54.6622 93.6193C54.6622 91.3568 54.165 91.1911 53.0915 90.6218C51.8593 89.9589 51.6072 89.7932 51.6648 88.5539C51.6936 87.8838 51.7657 85.0521 51.8665 84.382C52.1259 82.8689 52.2773 83.5174 53.8048 82.5302V82.5302ZM133.525 93.331C133.647 87.7181 132.855 86.4139 129.295 85.6862C125.959 85.0017 122.544 84.6702 119.172 84.7999C115.115 84.9584 110.475 85.8375 107.362 87.2281C103.385 89.0078 102.945 90.3985 103.81 92.9059C106.252 100.01 109.185 109.305 121.542 108.844C130.678 108.505 133.337 101.977 133.525 93.331V93.331ZM58.6756 93.331C58.8701 101.977 61.5217 108.513 70.6581 108.844C83.0152 109.298 86.0559 99.6573 88.4985 92.5529C89.3631 90.0382 88.7939 89.6996 84.8165 87.9198C81.7038 86.5292 77.0924 84.9512 73.0286 84.7927C69.6565 84.663 66.2412 84.9945 62.9051 85.679C59.3457 86.4139 58.5531 87.7181 58.6756 93.331V93.331Z" fill="#202F41"/>
<path d="M88.902 99.7084C85.5875 105.718 77.1861 111.071 71.5011 111.071C65.8161 111.071 57.9335 107.663 59.7852 98.5916C61.7379 89.0085 65.8161 84.3106 71.5011 84.3106C77.1861 84.3034 96.9504 85.096 88.902 99.7084V99.7084ZM135.131 99.7084C132.451 106.027 123.423 111.071 117.731 111.071C112.038 111.071 107.204 105.883 107.362 97.8782C107.542 89.0013 112.874 84.2097 118.559 84.3394C129.85 84.5916 141.45 84.7934 135.131 99.7084Z" fill="#202F41"/>
</svg>
