<svg width="32" height="32" viewBox="0 0 32 32" fill="none" xmlns="http://www.w3.org/2000/svg">
<rect width="32" height="32" rx="16" fill="#F5F5F5"/>
<g clip-path="url(#clip0_50_170)">
<path fill-rule="evenodd" clip-rule="evenodd" d="M8.96632 13.7555C13.0421 13.1551 13.7687 13.908 16.0155 13.9537C18.2624 13.908 18.9889 13.035 23.0648 13.7555C23.3193 13.8012 23.3446 13.812 23.3878 14.0642C23.4058 14.1758 23.4178 14.6478 23.4214 14.7595C23.4298 14.966 23.389 14.9936 23.1836 15.1029C23.0047 15.1978 22.9219 15.2254 22.9219 15.6025C22.9219 18.0883 21.793 18.8569 20.2763 18.9157C18.6731 18.9782 17.3689 18.0667 16.8261 16.6677C16.0576 14.691 15.9375 14.6898 15.1689 16.6677C14.6273 18.0667 13.3568 18.9794 11.7548 18.9169C10.2381 18.8569 9.10923 17.9995 9.10923 15.6037C9.10923 15.2266 9.02637 15.199 8.84744 15.1041C8.64208 14.9936 8.60005 14.966 8.60966 14.7595C8.61446 14.6478 8.62647 14.1758 8.64329 14.0642C8.68652 13.812 8.71174 13.9201 8.96632 13.7555V13.7555Z" fill="#202F41" stroke="#202F41" stroke-width="0.202365" stroke-miterlimit="10"/>
<path fill-rule="evenodd" clip-rule="evenodd" d="M22.1507 15.4794C22.1712 14.5439 22.0391 14.3266 21.4458 14.2053C20.8898 14.0912 20.3206 14.036 19.7586 14.0576C19.0825 14.084 18.3139 14.347 17.7939 14.5788C17.131 14.8754 17.0362 14.9318 17.1803 15.3509C17.5874 16.535 18.0953 18.1418 20.1537 18.0661C21.6764 18.0085 22.1195 16.9205 22.1507 15.4794M9.72875 15.4794C9.76117 16.9205 10.2031 18.0097 11.7258 18.0649C13.7853 18.1418 14.2921 16.5338 14.6992 15.3497C14.8433 14.9306 14.7485 14.8742 14.0856 14.5776C13.5668 14.3458 12.7982 14.0828 12.1209 14.0564C11.5589 14.0348 10.9897 14.09 10.4337 14.2041C9.83923 14.3266 9.70713 14.5439 9.72875 15.4794V15.4794Z" fill="white"/>
<path fill-rule="evenodd" clip-rule="evenodd" d="M8.96632 13.7555C13.0421 13.1551 13.7687 13.908 16.0155 13.9537C18.2624 13.908 18.9889 13.035 23.0648 13.7555C23.3193 13.8012 23.3446 13.812 23.3878 14.0642C23.4058 14.1758 23.4178 14.6478 23.4214 14.7595C23.4298 14.966 23.389 14.9936 23.1836 15.1029C23.0047 15.1978 22.9219 15.2254 22.9219 15.6025C22.9219 18.0883 21.793 18.8569 20.2763 18.9157C18.6731 18.9782 17.3689 18.0667 16.8261 16.6677C16.0576 14.691 15.9375 14.6898 15.1689 16.6677C14.6273 18.0667 13.3568 18.9794 11.7548 18.9169C10.2381 18.8569 9.10923 17.9995 9.10923 15.6037C9.10923 15.2266 9.02637 15.199 8.84744 15.1041C8.64208 14.9936 8.60005 14.966 8.60966 14.7595C8.61446 14.6478 8.62647 14.1758 8.64329 14.0642C8.68652 13.812 8.71174 13.9201 8.96632 13.7555V13.7555ZM22.253 15.5557C22.2734 14.6202 22.1413 14.4028 21.548 14.2815C20.992 14.1674 20.4228 14.1122 19.8608 14.1338C19.1847 14.1602 18.4113 14.3067 17.8925 14.5385C17.2296 14.8351 17.1564 15.0669 17.3005 15.4848C17.7076 16.6689 18.1964 18.218 20.2559 18.1412C21.7786 18.0847 22.2217 16.9967 22.253 15.5557V15.5557ZM9.77813 15.5557C9.81055 16.9967 10.2525 18.0859 11.7752 18.1412C13.8347 18.2168 14.3415 16.61 14.7486 15.426C14.8927 15.0069 14.7978 14.9504 14.135 14.6538C13.6162 14.422 12.8476 14.159 12.1703 14.1326C11.6083 14.111 11.0391 14.1662 10.483 14.2803C9.88981 14.4028 9.75771 14.6202 9.77813 15.5557V15.5557Z" fill="#202F41"/>
<path d="M14.8157 16.619C14.2633 17.6206 12.8631 18.5128 11.9156 18.5128C10.968 18.5128 9.65428 17.9448 9.96291 16.4329C10.2883 14.8357 10.968 14.0527 11.9156 14.0527C12.8631 14.0515 16.1571 14.1836 14.8157 16.619V16.619ZM22.5206 16.619C22.0739 17.6722 20.5692 18.5128 19.6205 18.5128C18.6718 18.5128 17.866 17.6482 17.8924 16.314C17.9224 14.8345 18.8111 14.0359 19.7586 14.0575C21.6403 14.0996 23.5738 14.1332 22.5206 16.619Z" fill="#202F41"/>
</g>
<defs>
<clipPath id="clip0_50_170">
<rect width="15.3714" height="7.77205" fill="white" transform="translate(8.31348 12.0684)"/>
</clipPath>
</defs>
</svg>
