<svg width="512" height="512" viewBox="0 0 512 512" fill="none" xmlns="http://www.w3.org/2000/svg">
<rect width="512" height="512" rx="256" fill="#F5F5F5"/>
<path fill-rule="evenodd" clip-rule="evenodd" d="M143.48 220.082C208.693 210.475 220.317 222.522 256.267 223.252C292.217 222.522 303.842 208.553 369.055 220.082C373.128 220.812 373.532 220.985 374.223 225.02C374.512 226.807 374.704 234.358 374.761 236.145C374.896 239.45 374.243 239.891 370.957 241.64C368.094 243.158 366.768 243.6 366.768 249.633C366.768 289.407 348.707 301.704 324.439 302.645C298.788 303.644 277.922 289.061 269.237 266.676C256.94 235.05 255.018 235.03 242.721 266.676C234.056 289.061 213.727 303.663 188.095 302.664C163.828 301.704 145.766 287.985 145.766 249.652C145.766 243.619 144.44 243.177 141.578 241.659C138.292 239.891 137.619 239.45 137.773 236.145C137.85 234.358 138.042 226.807 138.311 225.02C139.003 220.985 139.406 222.714 143.48 220.082V220.082Z" fill="#202F41" stroke="#202F41" stroke-width="3.23783" stroke-miterlimit="10"/>
<path fill-rule="evenodd" clip-rule="evenodd" d="M354.432 247.652C354.758 232.684 352.645 229.207 343.153 227.266C334.257 225.441 325.149 224.557 316.157 224.903C305.34 225.325 293.042 229.533 284.723 233.242C274.116 237.987 272.598 238.891 274.904 245.596C281.418 264.542 289.545 290.25 322.479 289.04C346.842 288.117 353.932 270.709 354.432 247.652M155.68 247.652C156.199 270.709 163.27 288.137 187.633 289.02C220.586 290.25 228.694 264.522 235.208 245.577C237.513 238.871 235.995 237.968 225.389 233.222C217.089 229.514 204.791 225.306 193.955 224.883C184.962 224.537 175.855 225.421 166.959 227.247C157.448 229.207 155.334 232.684 155.68 247.652V247.652Z" fill="white"/>
<path fill-rule="evenodd" clip-rule="evenodd" d="M143.48 220.082C208.693 210.475 220.317 222.522 256.267 223.252C292.217 222.522 303.842 208.553 369.055 220.082C373.128 220.812 373.532 220.985 374.223 225.02C374.512 226.807 374.704 234.358 374.761 236.145C374.896 239.45 374.243 239.891 370.957 241.64C368.094 243.158 366.768 243.6 366.768 249.633C366.768 289.407 348.707 301.704 324.439 302.645C298.788 303.644 277.922 289.061 269.237 266.676C256.94 235.05 255.018 235.03 242.721 266.676C234.056 289.061 213.727 303.663 188.095 302.664C163.828 301.704 145.766 287.985 145.766 249.652C145.766 243.619 144.44 243.177 141.578 241.659C138.292 239.891 137.619 239.45 137.773 236.145C137.85 234.358 138.042 226.807 138.311 225.02C139.003 220.985 139.406 222.714 143.48 220.082V220.082ZM356.066 248.884C356.393 233.916 354.279 230.438 344.787 228.497C335.891 226.672 326.783 225.788 317.791 226.134C306.974 226.557 294.6 228.901 286.299 232.609C275.693 237.355 274.521 241.064 276.826 247.75C283.34 266.695 291.16 291.482 324.113 290.252C348.476 289.349 355.566 271.941 356.066 248.884V248.884ZM156.469 248.884C156.987 271.941 164.058 289.368 188.422 290.252C221.374 291.462 229.483 265.754 235.996 246.809C238.302 240.103 236.784 239.2 226.178 234.454C217.877 230.746 205.58 226.538 194.743 226.115C185.751 225.769 176.643 226.653 167.747 228.478C158.255 230.438 156.142 233.916 156.469 248.884V248.884Z" fill="#202F41"/>
<path d="M237.072 265.889C228.234 281.914 205.83 296.19 190.67 296.19C175.51 296.19 154.489 287.102 159.427 262.911C164.635 237.356 175.51 224.828 190.67 224.828C205.83 224.809 258.534 226.923 237.072 265.889V265.889ZM360.351 265.889C353.203 282.74 329.128 296.19 313.948 296.19C298.769 296.19 285.876 282.356 286.299 261.009C286.779 237.337 300.998 224.559 316.158 224.905C346.267 225.578 377.201 226.116 360.351 265.889Z" fill="#202F41"/>
</svg>
