<svg width="250" height="250" viewBox="0 0 250 250" fill="none" xmlns="http://www.w3.org/2000/svg">
<rect width="250" height="250" rx="125" fill="#F5F5F5"/>
<path fill-rule="evenodd" clip-rule="evenodd" d="M70.059 107.462C101.901 102.771 107.577 108.653 125.131 109.01C142.685 108.653 148.361 101.833 180.203 107.462C182.192 107.818 182.389 107.903 182.727 109.873C182.868 110.745 182.961 114.432 182.989 115.305C183.055 116.919 182.736 117.135 181.132 117.988C179.734 118.729 179.087 118.945 179.087 121.891C179.087 141.312 170.268 147.316 158.418 147.776C145.893 148.264 135.704 141.143 131.464 130.213C125.459 114.77 124.521 114.761 118.517 130.213C114.285 141.143 104.359 148.273 91.8439 147.785C79.9945 147.316 71.1754 140.618 71.1754 121.901C71.1754 118.955 70.5281 118.739 69.1302 117.998C67.5259 117.134 67.1975 116.919 67.2726 115.305C67.3101 114.432 67.4039 110.745 67.5352 109.873C67.873 107.903 68.07 108.747 70.059 107.462Z" fill="#202F41" stroke="#202F41" stroke-width="1.58097" stroke-miterlimit="10"/>
<path fill-rule="evenodd" clip-rule="evenodd" d="M173.064 120.924C173.223 113.616 172.191 111.917 167.557 110.97C163.213 110.079 158.766 109.647 154.375 109.816C149.093 110.022 143.089 112.077 139.026 113.888C133.847 116.205 133.106 116.646 134.232 119.92C137.412 129.171 141.381 141.724 157.462 141.133C169.358 140.683 172.82 132.182 173.064 120.924ZM76.0171 120.924C76.2704 132.182 79.7229 140.692 91.6192 141.123C107.709 141.724 111.668 129.161 114.849 119.911C115.975 116.637 115.234 116.196 110.055 113.878C106.002 112.068 99.9973 110.013 94.7059 109.807C90.3151 109.638 85.8681 110.069 81.5243 110.961C76.8802 111.917 75.8482 113.616 76.0171 120.924Z" fill="white"/>
<path fill-rule="evenodd" clip-rule="evenodd" d="M70.059 107.462C101.901 102.771 107.577 108.653 125.131 109.01C142.685 108.653 148.361 101.833 180.203 107.462C182.192 107.818 182.389 107.903 182.727 109.873C182.868 110.745 182.961 114.432 182.989 115.305C183.055 116.919 182.736 117.135 181.132 117.988C179.734 118.729 179.087 118.945 179.087 121.891C179.087 141.312 170.268 147.316 158.418 147.776C145.893 148.264 135.704 141.143 131.464 130.213C125.459 114.77 124.521 114.761 118.517 130.213C114.285 141.143 104.359 148.273 91.8439 147.785C79.9945 147.316 71.1754 140.618 71.1754 121.901C71.1754 118.955 70.5281 118.739 69.1302 117.998C67.5259 117.134 67.1975 116.919 67.2726 115.305C67.3101 114.432 67.4039 110.745 67.5352 109.873C67.873 107.903 68.07 108.747 70.059 107.462ZM173.861 121.525C174.02 114.217 172.988 112.519 168.354 111.571C164.01 110.68 159.563 110.248 155.172 110.417C149.89 110.623 143.848 111.768 139.795 113.579C134.616 115.896 134.044 117.707 135.17 120.972C138.35 130.222 142.169 142.325 158.259 141.725C170.155 141.284 173.617 132.784 173.861 121.525ZM76.4012 121.525C76.6545 132.784 80.1071 141.293 92.0034 141.725C108.093 142.316 112.053 129.763 115.233 120.512C116.359 117.238 115.618 116.797 110.439 114.479C106.386 112.669 100.381 110.614 95.09 110.408C90.6993 110.239 86.2522 110.67 81.9084 111.562C77.2737 112.519 76.2417 114.217 76.4012 121.525Z" fill="#202F41"/>
<path d="M115.758 129.829C111.443 137.653 100.503 144.624 93.101 144.624C85.6987 144.624 75.4348 140.186 77.846 128.374C80.3885 115.896 85.6987 109.779 93.101 109.779C100.503 109.77 126.238 110.802 115.758 129.829ZM175.953 129.829C172.463 138.057 160.707 144.624 153.296 144.624C145.884 144.624 139.589 137.869 139.795 127.446C140.03 115.887 146.972 109.648 154.375 109.817C169.076 110.145 184.181 110.408 175.953 129.829Z" fill="#202F41"/>
</svg>
